{"title":"Inception.2010.BDRip.H264-Sysmic Wave","uid":6114118,"size":4687347652,"categoryP":"video","categoryS":"hd___movies","magnet":"?xt=urn:btih:d3004f8788488ed8d006485bdfedc8a2f5140737&amp;dn=Inception.2010.BDRip.H264-Sysmic+Wave&amp;tr=udp%3A%2F%2Ftracker.openbittorrent.com%3A80&amp;tr=udp%3A%2F%2Fopen.demonii.com%3A1337&amp;tr=udp%3A%2F%2Ftracker.coppersurfer.tk%3A6969&amp;tr=udp%3A%2F%2Fexodus.desync.com%3A6969","seeders":0,"leechers":0,"uploader":"Sysmic Wave","files":1,"time":1295477594,"description":"Inception.2010.BDRip.H264-Sysmic Wave.mkv\n\nFormat                           : Matroska\nFile size                        : 4.37 GiB\nDuration                         : 2h 28mn\nOverall bit rate                 : 4 219 Kbps\n\nVideo\nFormat                           : AVC\nFormat/Info                      : Advanced Video Codec\nFormat profile                   : &lt;a class=&quot;__cf_email__&quot; href=&quot;/cdn-cgi/l/email-protection&quot; data-cfemail=&quot;034b6a646b434f372d32&quot;&gt;[email&amp;#160;protected]&lt;/a&gt;&lt;script cf-hash='f9e31' type=&quot;text/javascript&quot;&gt;\n/* &lt;![CDATA[ */!function(){try{var t=&quot;currentScript&quot;in document?document.currentScript:function(){for(var t=document.getElementsByTagName(&quot;script&quot;),e=t.length;e--;)if(t[e].getAttribute(&quot;cf-hash&quot;))return t[e]}();if(t&amp;&amp;t.previousSibling){var e,r,n,i,c=t.previousSibling,a=c.getAttribute(&quot;data-cfemail&quot;);if(a){for(e=&quot;&quot;,r=parseInt(a.substr(0,2),16),n=2;a.length-n;n+=2)i=parseInt(a.substr(n,2),16)^r,e+=String.fromCharCode(i);e=document.createTextNode(e),c.parentNode.replaceChild(e,c)}}}catch(u){}}();/* ]]&gt; */&lt;/script&gt;\nFormat settings, CABAC           : Yes\nFormat settings, ReFrames        : 3 frames\nFormat settings, GOP             : M=4, N=29\nCodec ID                         : V_MPEG4/ISO/AVC\nDuration                         : 2h 28mn\nBit rate mode                    : Variable\nBit rate                         : 3 776 Kbps\nMaximum bit rate                 : 15.0 Mbps\nWidth                            : 1 280 pixels\nHeight                           : 720 pixels\nDisplay aspect ratio             : 16:9\nFrame rate                       : 23.976 fps\nColor space                      : YUV\nChroma subsampling               : 4:2:0\nBit depth                        : 8 bits\nScan type                        : Progressive\nBits/(Pixel*Frame)               : 0.171\nStream size                      : 3.82 GiB (87%)\n\nAudio\nID                               : 2\nFormat                           : AC-3\nFormat/Info                      : Audio Coding 3\nMode extension                   : CM (complete main)\nCodec ID                         : A_AC3\nDuration                         : 2h 28mn\nBit rate mode                    : Constant\nBit rate                         : 448 Kbps\nChannel(s)                       : 6 channels\nChannel positions                : Front: L C R, Side: L R, LFE\nSampling rate                    : 48.0 KHz\nBit depth                        : 16 bits\nCompression mode                 : Lossy\nStream size                      : 475 MiB (11%)\n","torrent":{"xt":"urn:btih:d3004f8788488ed8d006485bdfedc8a2f5140737","amp;dn":"Inception.2010.BDRip.H264-Sysmic+Wave","amp;tr":["udp%3A%2F%2Ftracker.openbittorrent.com%3A80","udp%3A%2F%2Fopen.demonii.com%3A1337","udp%3A%2F%2Ftracker.coppersurfer.tk%3A6969","udp%3A%2F%2Fexodus.desync.com%3A6969"],"infoHash":"d3004f8788488ed8d006485bdfedc8a2f5140737","infoHashBuffer":{"type":"Buffer","data":[211,0,79,135,136,72,142,216,208,6,72,91,223,237,200,162,245,20,7,55]},"announce":[],"urlList":[]}}